<?xml version="1.0" encoding="UTF-8"?>
<svg version="1.1" xmlns="http://www.w3.org/2000/svg" width="517" height="404">
<path d="M0 0 C170.61 0 341.22 0 517 0 C517 133.32 517 266.64 517 404 C346.39 404 175.78 404 0 404 C0 270.68 0 137.36 0 0 Z " fill="#FDFDFD" transform="translate(0,0)"/>
<path d="M0 0 C7.38535072 5.8619698 10.46422625 13.12004664 12.4296875 22.19140625 C12.5225 23.80015625 12.5225 23.80015625 12.6171875 25.44140625 C12.6996875 26.61703125 12.7821875 27.79265625 12.8671875 29.00390625 C12.6483776 40.27261585 9.5726855 50.85680635 1.953125 59.28125 C-4.67126122 65.46703531 -11.20707988 66.69834735 -19.9453125 66.81640625 C-20.6657373 66.8304248 -21.38616211 66.84444336 -22.12841797 66.85888672 C-23.18440186 66.84946045 -23.18440186 66.84946045 -24.26171875 66.83984375 C-24.8863501 66.83645996 -25.51098145 66.83307617 -26.15454102 66.82958984 C-28.3828125 66.44140625 -28.3828125 66.44140625 -35.3828125 63.44140625 C-35.3828125 71.36140625 -35.3828125 79.28140625 -35.3828125 87.44140625 C-42.6428125 87.44140625 -49.9028125 87.44140625 -57.3828125 87.44140625 C-57.3828125 57.74140625 -57.3828125 28.04140625 -57.3828125 -2.55859375 C-50.4528125 -2.55859375 -43.5228125 -2.55859375 -36.3828125 -2.55859375 C-36.3828125 -0.90859375 -36.3828125 0.74140625 -36.3828125 2.44140625 C-35.70734375 2.01988281 -35.031875 1.59835938 -34.3359375 1.1640625 C-33.44390625 0.61621094 -32.551875 0.06835938 -31.6328125 -0.49609375 C-30.31023437 -1.31400391 -30.31023437 -1.31400391 -28.9609375 -2.1484375 C-20.03519426 -7.03054858 -8.29587396 -5.42631756 0 0 Z " fill="#212C4E" transform="translate(151.3828125,183.55859375)"/>
<path d="M0 0 C45.87 0 91.74 0 139 0 C138.3650415 6.34958502 137.67049398 12.40693467 136.4375 18.625 C136.29892578 19.34300781 136.16035156 20.06101563 136.01757812 20.80078125 C135.6823676 22.5346288 135.34178368 24.26743619 135 26 C133.72511719 26.08636719 132.45023438 26.17273438 131.13671875 26.26171875 C103.08576308 28.37367862 75.35231322 33.74823345 49.625 45.375 C46 47 46 47 44 47 C44.75829384 40.55450237 44.75829384 40.55450237 46.0625 37.5625 C47.45810871 34.20260453 47.45810871 34.20260453 47 27 C23.735 26.505 23.735 26.505 0 26 C0 17.42 0 8.84 0 0 Z " fill="#222C4E" transform="translate(354,158)"/>
<path d="M0 0 C6.789779 5.65153145 10.55844464 11.89464522 12.00390625 20.66796875 C13.00650457 32.8137312 10.76017503 41.28958365 5.25390625 52.10546875 C-1.09466668 59.33578792 -10.0336931 63.50592439 -19.609375 64.13671875 C-21.17544237 64.17092457 -22.74220586 64.1808542 -24.30859375 64.16796875 C-25.13528564 64.16152344 -25.96197754 64.15507812 -26.8137207 64.1484375 C-36.07147737 63.87389277 -43.44042229 61.30867084 -50.43359375 55.10546875 C-58.07222696 46.75071367 -60.32943927 35.99405859 -60.20703125 25.05078125 C-59.62921148 15.78426415 -55.9989096 7.73395147 -49.44921875 1.1015625 C-35.64349374 -10.81832894 -14.61691449 -10.59007222 0 0 Z " fill="#1F2A4C" transform="translate(227.99609375,186.33203125)"/>
<path d="M0 0 C-0.66 5.61 -1.32 11.22 -2 17 C-3.27875 16.505 -4.5575 16.01 -5.875 15.5 C-13.70989219 13.08839301 -21.89728716 13.76168492 -30 14 C-30.33 15.65 -30.66 17.3 -31 19 C-26.38599304 20.67174165 -21.91181054 22.07574755 -17.0625 22.875 C-10.25827489 24.17861322 -3.51426862 26.70447146 1.125 32.0625 C4.13355403 37.00512448 3.86337023 42.44470796 3 48 C1.04995804 54.37788953 -2.12630755 59.1588313 -7.7421875 62.81640625 C-19.73680363 69.10424135 -35.90468527 68.92412209 -48.6875 65.0625 C-53.72244094 63.27755906 -53.72244094 63.27755906 -55 62 C-54.93487013 60.45464593 -54.79682667 58.91215214 -54.625 57.375 C-54.52574219 56.4778125 -54.42648438 55.580625 -54.32421875 54.65625 C-53.93026035 51.428639 -53.48916779 48.21453118 -53 45 C-51.9790625 45.433125 -51.9790625 45.433125 -50.9375 45.875 C-44.30497528 48.41511585 -38.87813341 49.29817357 -31.8125 49.1875 C-30.62237305 49.1865332 -30.62237305 49.1865332 -29.40820312 49.18554688 C-25.74862306 49.15789262 -22.54170606 48.99358061 -19 48 C-19.18828772 45.55519921 -19.18828772 45.55519921 -20 43 C-23.04269067 40.84217345 -26.36129796 40.56017188 -29.99145508 40.06323242 C-38.55946035 38.8749554 -44.65457037 37.32250848 -50.3203125 30.3828125 C-54.26280587 24.84126588 -54.67539554 19.5875536 -54 13 C-52.42207551 7.28128002 -49.18150788 3.5352998 -44.30859375 0.25390625 C-31.97982572 -6.44242968 -12.56531742 -6.28265871 0 0 Z " fill="#202B4D" transform="translate(84,183)"/>
<path d="M0 0 C7.26 0 14.52 0 22 0 C22 6.27 22 12.54 22 19 C27.94 19 33.88 19 40 19 C40 24.94 40 30.88 40 37 C34.06 37 28.12 37 22 37 C22.07400967 41.21855131 22.1568302 45.43498328 22.26245117 49.65258789 C22.29569001 51.08704628 22.32372535 52.52163513 22.34643555 53.95629883 C22.38000271 56.01960807 22.43231413 58.08172303 22.48828125 60.14453125 C22.51446533 61.38565674 22.54064941 62.62678223 22.56762695 63.90551758 C22.75718233 66.95529042 22.75718233 66.95529042 24.32226562 68.91015625 C27.13156812 70.73505822 29.91140069 70.27766787 33.1875 70.1875 C36.5596875 70.0946875 36.5596875 70.0946875 40 70 C40 75.61 40 81.22 40 87 C30.12374461 88.64604256 17.09636737 90.12512412 8.078125 84.8828125 C2.70710468 80.9544216 1.18195762 76.383586 0 70 C-0.38629146 64.56536468 -0.35109899 59.15414144 -0.29296875 53.7109375 C-0.28736211 52.15581678 -0.28309707 50.6006907 -0.28010559 49.04556274 C-0.26874072 44.98489327 -0.23934738 40.92455411 -0.20599365 36.86401367 C-0.17511077 32.70756496 -0.16156162 28.55106203 -0.14648438 24.39453125 C-0.11446803 16.26285357 -0.0617703 8.13150614 0 0 Z " fill="#242F50" transform="translate(301,162)"/>
<path d="M0 0 C0.99 0.495 0.99 0.495 2 1 C1.40832031 1.55945313 0.81664062 2.11890625 0.20703125 2.6953125 C-6.49503646 9.49577924 -9.37983104 15.90704327 -12 25 C-12.36867188 26.21816406 -12.73734375 27.43632812 -13.1171875 28.69140625 C-14.81276692 34.42791035 -16.36791697 40.16120477 -17.5078125 46.03515625 C-18 48 -18 48 -18.92578125 50.19921875 C-20.37173359 53.96921084 -21.18964508 57.81385575 -22.0625 61.75 C-23.86702976 69.86702976 -23.86702976 69.86702976 -25 71 C-26.59610982 71.09333705 -28.19633428 71.11745372 -29.79516602 71.11352539 C-30.81614883 71.11344986 -31.83713165 71.11337433 -32.88905334 71.11329651 C-33.9994548 71.10813522 -35.10985626 71.10297394 -36.25390625 71.09765625 C-37.38448959 71.0962413 -38.51507294 71.09482635 -39.67991638 71.09336853 C-43.30747065 71.08775019 -46.93496424 71.07519458 -50.5625 71.0625 C-53.01497307 71.05748736 -55.4674471 71.05292405 -57.91992188 71.04882812 C-63.94663545 71.0377748 -69.97331339 71.02101884 -76 71 C-66.06515973 45.19377867 -37.82258558 18.11519138 -13.04296875 6.046875 C-11.37295015 5.33815379 -9.68660928 4.66827915 -8 4 C-5.88709365 2.91258849 -3.78817744 1.8045913 -1.69921875 0.671875 C-1.13847656 0.45015625 -0.57773437 0.2284375 0 0 Z " fill="#1E294C" transform="translate(452,203)"/>
<path d="M0 0 C-0.78310547 0.25523437 -0.78310547 0.25523437 -1.58203125 0.515625 C-12.95477805 4.26006703 -23.74795242 8.42203078 -34.30126953 14.09179688 C-35.81334686 14.90020844 -37.34125966 15.67884162 -38.87109375 16.453125 C-51.62940535 23.05029058 -63.25933804 31.48791154 -73.50390625 41.53466797 C-75.09311289 43.09119837 -76.70241475 44.6252519 -78.3125 46.16015625 C-85.79396745 53.37577927 -93.6437166 61.12658268 -98.25317383 70.56640625 C-99.92654656 73.62554501 -101.34262759 75.72467192 -104 78 C-109.36471758 79.24146907 -114.4751119 78.95149889 -119.9375 78.625 C-121.39893621 78.57477882 -122.86053831 78.52916187 -124.32226562 78.48828125 C-127.88498596 78.37866861 -131.4414285 78.2065058 -135 78 C-130.08325243 67.99095353 -122.63258711 59.98985714 -115 52 C-113.86884766 50.78957031 -113.86884766 50.78957031 -112.71484375 49.5546875 C-95.74948931 31.88116037 -72.00426539 19.05016008 -49 11 C-48.20287598 10.7205957 -47.40575195 10.44119141 -46.58447266 10.15332031 C-35.9860008 6.49757508 -25.32153337 3.43034559 -14.375 1 C-13.39724609 0.78013428 -12.41949219 0.56026855 -11.41210938 0.33374023 C-10.50009766 0.14110596 -9.58808594 -0.05152832 -8.6484375 -0.25 C-7.84583496 -0.42015625 -7.04323242 -0.5903125 -6.21630859 -0.765625 C-3.8667047 -1.014096 -2.23600713 -0.7153179 0 0 Z " fill="#202A4C" transform="translate(466,196)"/>
<path d="M0 0 C0 6.93 0 13.86 0 21 C-2.124375 21.20625 -4.24875 21.4125 -6.4375 21.625 C-13.59128185 22.61898389 -18.86342146 24.86342146 -24 30 C-24.16023562 32.88252645 -24.25954029 35.74378527 -24.31640625 38.62890625 C-24.33718735 39.49313705 -24.35796844 40.35736786 -24.37937927 41.24778748 C-24.44497114 44.01927445 -24.50380418 46.79085921 -24.5625 49.5625 C-24.60567608 51.43685923 -24.64929006 53.31120843 -24.69335938 55.18554688 C-24.80148968 59.79026566 -24.90049083 64.39505441 -25 69 C-31.93 69 -38.86 69 -46 69 C-46 46.89 -46 24.78 -46 2 C-39.07 2 -32.14 2 -25 2 C-24.67 4.97 -24.34 7.94 -24 11 C-23.443125 10.45730469 -22.88625 9.91460937 -22.3125 9.35546875 C-14.78800664 2.30125623 -10.38252862 0 0 0 Z " fill="#1F294B" transform="translate(294,179)"/>
<path d="M0 0 C3.93682468 1.26275508 5.6422424 2.59516903 8.375 5.6875 C11.67166 12.1700079 11.069565 21.82989827 9.3046875 28.7109375 C7.86950373 31.95517643 6.14288903 33.89366397 3.3125 36 C-1.98007642 37.59775892 -6.70793431 37.94672279 -11.875 35.8125 C-15.40626286 32.8005405 -17.13577123 29.50469684 -18 25 C-18.16900499 22.54527175 -18.26585145 20.08509703 -18.3125 17.625 C-18.34988281 16.33851563 -18.38726562 15.05203125 -18.42578125 13.7265625 C-17.81691945 8.39762525 -15.36476275 5.48174241 -11.8125 1.625 C-7.81650008 -0.68379996 -4.5085287 -0.63724787 0 0 Z " fill="#F8F8F9" transform="translate(208,196)"/>
<path d="M0 0 C3.96095928 1.91977528 6.41109862 4.92754555 8 9 C8.72159523 17.11794636 9.04890915 25.29186725 3.6875 31.8125 C-1.06162325 35.67806544 -4.756242 36.22363551 -10.71875 36.265625 C-13.39465082 35.95404751 -15.52305565 35.03325723 -18 34 C-18.14860594 29.80092955 -18.25732637 25.60326021 -18.32958984 21.40234375 C-18.35971791 19.97433814 -18.40063103 18.54651694 -18.45263672 17.11914062 C-18.52564914 15.0633399 -18.55948862 13.00998787 -18.5859375 10.953125 C-18.6173584 9.71723633 -18.6487793 8.48134766 -18.68115234 7.20800781 C-18 4 -18 4 -15.15087891 1.60083008 C-10.11586323 -0.95725126 -5.5130395 -0.88359674 0 0 Z " fill="#F9F9FA" transform="translate(134,197)"/>
<path d="M0 0 C-0.6875 1.9375 -0.6875 1.9375 -2 4 C-3.65449105 4.38929201 -5.32546201 4.708776 -7 5 C-9.08810577 5.98287791 -11.10802698 7.05322097 -13.1328125 8.16015625 C-15 9 -15 9 -18 9 C-18 8.01 -18 7.02 -18 6 C-15.05442083 4.03628055 -12.24961274 2.70234663 -9 1.3125 C-7.4221875 0.62607422 -7.4221875 0.62607422 -5.8125 -0.07421875 C-3 -1 -3 -1 0 0 Z " fill="#DFE0E5" transform="translate(457,200)"/>
<path d="M0 0 C-3.38911887 1.20729806 -6.78714416 2.38726181 -10.1875 3.5625 C-11.62706055 4.07586914 -11.62706055 4.07586914 -13.09570312 4.59960938 C-14.02705078 4.91865234 -14.95839844 5.23769531 -15.91796875 5.56640625 C-16.77156982 5.86490479 -17.6251709 6.16340332 -18.50463867 6.47094727 C-21.38420027 7.08145602 -23.17476842 6.75742182 -26 6 C-27.1446875 5.7215625 -27.1446875 5.7215625 -28.3125 5.4375 C-28.869375 5.293125 -29.42625 5.14875 -30 5 C-26.60452426 4.18600073 -23.20855803 3.3740662 -19.8125 2.5625 C-18.85279297 2.33240234 -17.89308594 2.10230469 -16.90429688 1.86523438 C-15.97294922 1.64287109 -15.04160156 1.42050781 -14.08203125 1.19140625 C-13.22843018 0.98717041 -12.3748291 0.78293457 -11.49536133 0.57250977 C-10.67189209 0.38358154 -9.84842285 0.19465332 -9 0 C-8.15268311 -0.21019775 -7.30536621 -0.42039551 -6.43237305 -0.63696289 C-3.92594518 -1.01105285 -2.3818043 -0.79393477 0 0 Z " fill="#575E75" transform="translate(466,196)"/>
<path d="M0 0 C0 0.66 0 1.32 0 2 C-4.15737311 3.64361263 -6.6873967 4.24838516 -11 3 C-12.33247388 2.66324751 -13.66567905 2.3293577 -15 2 C-13.25364835 1.46706165 -11.50272348 0.94909337 -9.75 0.4375 C-8.77546875 0.14746094 -7.8009375 -0.14257812 -6.796875 -0.44140625 C-4.03756068 -0.99249836 -2.6087176 -0.93789609 0 0 Z " fill="#454D6A" transform="translate(451,199)"/>
<path d="M0 0 C0.66 0.33 1.32 0.66 2 1 C0.9024777 3.99324263 0.32317108 4.84610901 -2.625 6.25 C-3.40875 6.4975 -4.1925 6.745 -5 7 C-5 5.68 -5 4.36 -5 3 C-2 1 -2 1 0 0 Z " fill="#CED1D7" transform="translate(444,203)"/>
</svg>
